<svg width="20" height="20" viewBox="0 0 20 20" fill='none'  xmlns="http://www.w3.org/2000/svg">
<path d="M5.83334 15C4.91667 15 4.175 15.75 4.175 16.6667C4.175 17.5834 4.91667 18.3334 5.83334 18.3334C6.75 18.3334 7.5 17.5834 7.5 16.6667C7.5 15.75 6.75 15 5.83334 15ZM0.833336 2.50002C0.833336 2.95835 1.20834 3.33335 1.66667 3.33335H2.5L5.5 9.65835L4.375 11.6917C3.76667 12.8084 4.56667 14.1667 5.83334 14.1667H15C15.4583 14.1667 15.8333 13.7917 15.8333 13.3334C15.8333 12.875 15.4583 12.5 15 12.5H5.83334L6.75 10.8334H12.9583C13.5833 10.8334 14.1333 10.4917 14.4167 9.97502L17.4 4.56669C17.7083 4.01669 17.3083 3.33335 16.675 3.33335H4.34167L3.78334 2.14169C3.65 1.85002 3.35 1.66669 3.03334 1.66669H1.66667C1.20834 1.66669 0.833336 2.04169 0.833336 2.50002ZM14.1667 15C13.25 15 12.5083 15.75 12.5083 16.6667C12.5083 17.5834 13.25 18.3334 14.1667 18.3334C15.0833 18.3334 15.8333 17.5834 15.8333 16.6667C15.8333 15.75 15.0833 15 14.1667 15Z" fill="currentColor"/>
</svg>
