<svg width="27" height="27" viewBox="0 0 27 27" fill="none" xmlns="http://www.w3.org/2000/svg">
<path d="M19.25 17H18.065L17.645 16.595C19.445 14.495 20.375 11.63 19.865 8.58496C19.16 4.41496 15.68 1.08496 11.48 0.574962C5.135 -0.205038 -0.190002 5.13496 0.574998 11.48C1.085 15.68 4.415 19.16 8.585 19.865C11.63 20.375 14.495 19.445 16.595 17.645L17 18.065V19.25L23.39 25.625C24.005 26.24 24.995 26.24 25.61 25.625L25.625 25.61C26.24 24.995 26.24 24.005 25.625 23.39L19.25 17ZM10.25 17C6.515 17 3.5 13.985 3.5 10.25C3.5 6.51496 6.515 3.49996 10.25 3.49996C13.985 3.49996 17 6.51496 17 10.25C17 13.985 13.985 17 10.25 17ZM10.25 6.49996C9.83 6.49996 9.5 6.82996 9.5 7.24996V9.49996H7.25C6.83 9.49996 6.5 9.82996 6.5 10.25C6.5 10.67 6.83 11 7.25 11H9.5V13.25C9.5 13.67 9.83 14 10.25 14C10.67 14 11 13.67 11 13.25V11H13.25C13.67 11 14 10.67 14 10.25C14 9.82996 13.67 9.49996 13.25 9.49996H11V7.24996C11 6.82996 10.67 6.49996 10.25 6.49996Z" fill="currentColor"/>
</svg>
